<svg id="f7e4d890-49c5-4510-ab8b-068b53af747b" xmlns="http://www.w3.org/2000/svg" viewBox="0 0 98.79 132.1"><defs><style>.cls-1{fill:#f9d075;}.cls-2{fill:#ffe9a1;}.cls-3{fill:#2b1f0e;}.cls-4{fill:#f25f1d;}.cls-5,.cls-6{fill:#535461;}.cls-6{opacity:0.2;isolation:isolate;}.cls-7{fill:none;stroke:#2b1f0e;stroke-linecap:round;stroke-miterlimit:10;stroke-width:2px;}</style></defs><rect class="cls-1" x="14.49" y="38.52" width="65.55" height="89.95" rx="25"/><path class="cls-1" d="M554.26,374.36s-7.44-13.49-3.79-26.4c0,0,15.72-4.21,26.39,8.14Z" transform="translate(-540.98 -347.27)"/><path class="cls-2" d="M556.55,370.89s-5.53-10-2.82-19.64c0,0,11.69-3.13,19.63,6.06Z" transform="translate(-540.98 -347.27)"/><path class="cls-2" d="M624.14,370.89s5.53-10,2.82-19.64c0,0-11.69-3.13-19.63,6.06Z" transform="translate(-540.98 -347.27)"/><path class="cls-1" d="M626.42,374.36s7.44-13.49,3.79-26.4c0,0-15.72-4.21-26.39,8.14Z" transform="translate(-540.98 -347.27)"/><path class="cls-2" d="M624.14,370.89s5.53-10,2.82-19.64c0,0-11.69-3.13-19.63,6.06Z" transform="translate(-540.98 -347.27)"/><path class="cls-1" d="M630.2,390.6c0,1.07-.05,2.13-.14,3.18-1.69,19.6-18.83,35-39.72,35-18.7,0-34.4-12.34-38.7-29a37,37,0,0,1-1.16-9.19c0-21.08,17.85-38.18,39.86-38.18S630.2,369.54,630.2,390.6Z" transform="translate(-540.98 -347.27)"/><path class="cls-2" d="M556.38,408.87l-3-6.46H541l7,6.18-5.05,1.68s41.82,44.91,92.63,0l-3.93-1.4,6.18-5.33-4.55-1.13,1.68-3.37-6.78.28-7.82,14.59-26.08,11.52Z" transform="translate(-540.98 -347.27)"/><circle class="cls-3" cx="63.68" cy="47.28" r="3.65"/><circle class="cls-3" cx="33.93" cy="47.28" r="3.65"/><path class="cls-2" d="M630.07,393.8c-1.69,19.6-18.83,35-39.72,35-18.7,0-34.4-12.34-38.7-29,2,1.82,3.79,4.46,5.39,6.18a19.42,19.42,0,0,0,4,3.57c2.45,1.5,5.43,1.85,8.3,2,2.59.1,5.47-.06,7.32-1.88s2.06-4.47,3.12-6.73a11.45,11.45,0,0,1,8.46-6.17,14.33,14.33,0,0,1,10.31,2.53,7.54,7.54,0,0,1,2.06,2,19.33,19.33,0,0,1,1.41,3.43c2.31,5.6,9.77,7.85,15.4,5.61s9.36-7.89,10.75-13.79C628.43,395.38,629,393.92,630.07,393.8Z" transform="translate(-540.98 -347.27)"/><path class="cls-4" d="M589.78,412.52l-1.68,1.68a3.56,3.56,0,0,0,3.09,0Z" transform="translate(-540.98 -347.27)"/><rect class="cls-5" x="9.5" y="39.14" width="79.72" height="2.81"/><rect class="cls-5" x="9.5" y="41.95" width="16" height="14.88"/><path class="cls-6" d="M566.34,389.08h18.53v3.13a10.05,10.05,0,0,1-10.06,10.06h-8.46V389.08Z" transform="translate(-540.98 -347.27)"/><path class="cls-5" d="M549.11,386.41H551v17.68h-1.93a6.21,6.21,0,0,1-6.21-6.21h0v-5.27a6.21,6.21,0,0,1,6.21-6.21h0Z" transform="translate(-540.98 -347.27)"/><path class="cls-7" d="M581.78,413.5s7.86,3.65,7.86-5.61" transform="translate(-540.98 -347.27)"/><path class="cls-7" d="M597.5,413.5s-7.86,3.65-7.86-5.61" transform="translate(-540.98 -347.27)"/><ellipse class="cls-4" cx="48.8" cy="56.82" rx="3.09" ry="3.93"/><ellipse class="cls-2" cx="73.17" cy="92.98" rx="13.14" ry="15.91"/><ellipse class="cls-2" cx="18.41" cy="91.98" rx="13.14" ry="15.91"/><ellipse class="cls-2" cx="28.75" cy="123.99" rx="13.14" ry="8.11"/><ellipse class="cls-2" cx="66.35" cy="123.99" rx="13.14" ry="8.11"/><path class="cls-1" d="M614.72,460.9c-.08.22,2.15,1.66,2.32,1.77,4,2.69,9.37,4.84,14,2.64,2.53-1.19,4.28-3.57,5.74-5.88a18.91,18.91,0,0,0,1.09-18.33c-.81-1.69-3.16-6.15-5.62-4.5-1.88,1.25-1.25,3.44-.3,5.08,1.19,2.06,2.69,4,3.06,6.43.55,3.67-1.59,8.59-4.21,11.15a6.86,6.86,0,0,1-4,1.8c-3.6.5-6.22-1.61-9.14-3.17a6.19,6.19,0,0,0-1.6-.81Z" transform="translate(-540.98 -347.27)"/></svg>